<?xml version="1.0" encoding="utf-8"?>
<!-- Generator: Adobe Illustrator 17.1.0, SVG Export Plug-In . SVG Version: 6.00 Build 0)  -->
<!DOCTYPE svg PUBLIC "-//W3C//DTD SVG 1.1//EN" "http://www.w3.org/Graphics/SVG/1.1/DTD/svg11.dtd">
<svg version="1.1" id="Layer_1" xmlns="http://www.w3.org/2000/svg" xmlns:xlink="http://www.w3.org/1999/xlink" x="0px" y="0px"
	 viewBox="0 0 71 71" enable-background="new 0 0 71 71" xml:space="preserve">
<g>
	<path fill="#1AC6CC" d="M10.382,60.39l21.757-49.892c1.291-2.94,5.391-2.92,6.654,0.033L60.22,60.717
		c6.751-6.702,10.823-15.808,10.551-26.15C70.265,15.386,53.439,0,34.251,0H6.461C2.665,0,0.216,2.509,0.216,6.305v28.412
		C0.216,44.648,3.896,53.771,10.382,60.39z"/>
	<path fill="#1AC6CC" d="M54.544,65.207l-5.692-13.65c-0.382-0.907-1.271-1.619-2.254-1.619h-8.674v-7.134h7.621L35.198,18.147
		L24.671,42.804h7.138v7.134h-8.207c-0.976,0-1.859,0.703-2.245,1.599l-5.761,13.406c5.48,3.713,12.027,5.963,19.111,6.054
		c7.348,0.095,14.17-2.029,19.864-5.753C54.562,65.226,54.551,65.226,54.544,65.207z"/>
</g>
</svg>
