<?xml version="1.0" encoding="utf-8"?>
<!-- Generator: Adobe Illustrator 17.1.0, SVG Export Plug-In . SVG Version: 6.00 Build 0)  -->
<!DOCTYPE svg PUBLIC "-//W3C//DTD SVG 1.1//EN" "http://www.w3.org/Graphics/SVG/1.1/DTD/svg11.dtd">
<svg version="1.1" id="Layer_1" xmlns="http://www.w3.org/2000/svg" xmlns:xlink="http://www.w3.org/1999/xlink" x="0px" y="0px"
	 viewBox="0 0 69.243 69.667" enable-background="new 0 0 69.243 69.667" xml:space="preserve">
	<g>
		<path fill="#f0f0f0" d="M9.975,59.256l21.349-48.955c1.267-2.885,5.29-2.865,6.529,0.032l21.024,49.244
			c6.624-6.576,10.62-15.511,10.353-25.659C68.734,15.097,52.224,0,33.396,0H6.128C2.403,0,0,2.462,0,6.187v27.879
			C0,43.81,3.611,52.761,9.975,59.256z"/>
		<path fill="#f0f0f0" d="M53.308,63.983l-5.585-13.394C47.348,49.699,46.476,49,45.511,49H37v-7h7.478L34.325,17.806L23.996,42H31v7
			h-8.053c-0.958,0-1.824,0.69-2.203,1.569l-5.653,13.154c5.377,3.643,11.801,5.851,18.752,5.94
			c7.21,0.093,13.904-1.991,19.491-5.645C53.326,64.001,53.315,64.001,53.308,63.983z"/>
	</g>
</svg>
