<?xml version="1.0" encoding="utf-8"?>
<!-- Generator: Adobe Illustrator 17.1.0, SVG Export Plug-In . SVG Version: 6.00 Build 0)  -->
<!DOCTYPE svg PUBLIC "-//W3C//DTD SVG 1.1//EN" "http://www.w3.org/Graphics/SVG/1.1/DTD/svg11.dtd">
<svg version="1.1" id="Layer_1" xmlns="http://www.w3.org/2000/svg" xmlns:xlink="http://www.w3.org/1999/xlink" x="0px" y="0px"
	 viewBox="0 0 800 800" enable-background="new 0 0 800 800" xml:space="preserve">
<g>
	<path fill="#FF0000" d="M400.101,116.401c39.113-43.782,78.863-72.924,129.249-83.981
		c97.514-21.393,194.344,25.541,243.534,119.303c45.791,87.28,33.08,202.072-34.393,275.423
		C631.816,543.111,523.078,656.924,415.563,772.018c-8.752,9.371-15.43,9.241-23.676,1.108c-1.483-1.462-2.954-2.945-4.384-4.472
		C278.373,652.241,167.949,537.155,60.532,418.978c-84.921-93.425-79.183-240.766,8.914-331.189
		c87.38-89.682,223.428-89.225,310.156,1.328C386.762,96.59,392.265,105.861,400.101,116.401z"/>
</g>
</svg>
