<?xml version="1.0" encoding="utf-8"?>
<!-- Generator: Adobe Illustrator 17.1.0, SVG Export Plug-In . SVG Version: 6.00 Build 0)  -->
<!DOCTYPE svg PUBLIC "-//W3C//DTD SVG 1.1//EN" "http://www.w3.org/Graphics/SVG/1.1/DTD/svg11.dtd">
<svg version="1.1" id="Layer_1" xmlns="http://www.w3.org/2000/svg" xmlns:xlink="http://www.w3.org/1999/xlink" x="0px" y="0px"
	 viewBox="0 0 800 800" enable-background="new 0 0 800 800" xml:space="preserve">
<polygon fill="#FFFFFF" points="136.219,765.145 120.467,731.809 84.985,715.044 68.217,679.558 34.874,663.801 40.529,651.838 
	78.158,669.619 94.926,705.105 130.408,721.87 148.185,759.492 "/>
<rect x="576.769" y="142.743" transform="matrix(0.7071 0.7071 -0.7071 0.7071 296.1907 -416.3426)" fill="#FFFFFF" width="147.785" height="13.233"/>
<rect x="592.367" y="127.147" transform="matrix(0.7071 0.7071 -0.7071 0.7071 289.7275 -431.938)" fill="#FFFFFF" width="147.784" height="13.233"/>
<rect x="607.964" y="111.549" transform="matrix(0.7071 0.7071 -0.7071 0.7071 283.2669 -447.5355)" fill="#FFFFFF" width="147.784" height="13.233"/>
<polygon fill="#FFFFFF" points="28.344,735.805 64.217,771.678 13.786,786.235 "/>
<line fill="#FFFFFF" x1="774.326" y1="779.514" x2="696.341" y2="701.53"/>
<rect x="680.19" y="733.905" transform="matrix(0.7071 0.7071 -0.7071 0.7071 739.0023 -303.0658)" fill="#FFFFFF" width="110.287" height="13.233"/>
<circle fill="#FFFFFF" cx="701.02" cy="706.209" r="15.44"/>
<g>
	<path fill="#FFFFFF" d="M33.585,80.285l40.547-40.546c3.75-3.75,8.735-5.815,14.037-5.815c3.195,0,6.268,0.762,9.032,2.178
		c-4.654-3.06-9.887-4.622-14.933-4.622c-5.749,0-11.255,2.021-15.372,6.138L31.466,73.046c-7.734,7.734-8.064,20.357-1.51,30.316
		C26.146,95.901,27.349,86.519,33.585,80.285z"/>
	<path fill="#FFFFFF" d="M634.009,544.42L406.333,316.99c0.206,1.776,0.117,3.598-0.307,5.375l-0.103,0.257
		c-1.198,2.981-2.494,5.913-3.864,8.804l222.481,222.24c2.05,2.179,3.154,5.009,2.926,7.411
		c-11.915,34.23-38.319,60.633-72.55,72.55c-0.205,0.019-0.414,0.029-0.627,0.029c-2.289,0-4.817-1.103-6.786-2.955l-222.23-222.486
		c-2.892,1.371-5.825,2.667-8.806,3.865l-0.267,0.108c-1.176,0.282-2.381,0.424-3.588,0.424c-0.594,0-1.181-0.044-1.763-0.111
		l227.408,227.669c4.507,4.325,10.338,6.719,16.033,6.719c1.3,0,2.595-0.125,3.864-0.381l0.612-0.21
		c38.684-13.295,68.077-42.687,81.372-81.371l0.211-0.613C641.722,557.492,639.321,549.957,634.009,544.42z"/>
</g>
<path fill="#FFFFFF" d="M88.171,27.307v13.234c3.534,0,6.856,1.377,9.356,3.876l0.493,0.493l0.542,0.439L261.205,176.9
	l136.277,135.875c1.895,2.047,2.71,4.915,2.195,7.643c-15.624,38.686-46.739,69.799-85.424,85.423
	c-0.542,0.103-1.092,0.155-1.643,0.155c-2.235,0-4.358-0.833-5.995-2.348l-135.868-136.29L39.196,104.715l-0.439-0.542l-0.493-0.493
	c-2.5-2.5-3.876-5.823-3.876-9.358c0-3.535,1.377-6.859,3.876-9.358l40.547-40.545c2.499-2.499,5.823-3.876,9.359-3.876
	L88.171,27.307 M88.169,27.307c-6.773,0.001-13.548,2.585-18.716,7.752L28.906,75.605c-10.337,10.337-10.337,27.096,0,37.433
	l131.984,163.178l136.495,136.919c4.154,3.962,9.626,6.096,15.225,6.096c1.884,0,3.783-0.242,5.651-0.737l0.671-0.27
	c42.439-17.05,76.077-50.688,93.128-93.127l0.27-0.673c1.966-7.417-0.063-15.323-5.359-20.876L270.062,167.043L106.885,35.06
	C101.717,29.891,94.944,27.307,88.169,27.307L88.169,27.307z"/>
<path fill="#FFFFFF" d="M325.653,357.877c-5.213-5.213-6.773-12.685-4.706-19.263L126.012,143.678l12.478-12.478l194.935,194.935
	c6.578-2.068,14.05-0.507,19.263,4.706c2.908,2.908,4.667,6.521,5.31,10.287l4.568-4.568l-9.358-9.358l-205.36-205.36l-9.358-9.358
	l-9.358,9.358l-12.478,12.478l-9.358,9.358l9.358,9.358l205.36,205.36l9.358,9.358l4.568-4.568
	C332.174,362.544,328.561,360.784,325.653,357.877z"/>
<path fill="#FFFFFF" d="M339.171,370.093c-6.874,0-13.336-2.676-18.196-7.538c-10.034-10.032-10.034-26.358-0.001-36.391
	c4.861-4.861,11.323-7.538,18.197-7.538c6.874,0,13.336,2.677,18.196,7.537c10.034,10.035,10.034,26.36,0,36.393
	C352.506,367.417,346.044,370.093,339.171,370.093z M339.171,331.86c-3.339,0-6.478,1.301-8.839,3.661
	c-4.872,4.874-4.872,12.804,0,17.677c2.362,2.361,5.5,3.661,8.839,3.661s6.477-1.3,8.839-3.661
	c4.872-4.874,4.872-12.804-0.001-17.677C345.648,333.161,342.509,331.86,339.171,331.86z"/>
<g>
	<polygon fill="#FFFFFF" points="418.909,338.905 632.575,125.242 623.218,115.884 409.546,329.553 	"/>
	<polygon fill="#FFFFFF" points="323.396,415.702 68.156,670.938 77.514,680.295 332.747,425.065 	"/>
</g>
<g>
	<polygon fill="#FFFFFF" points="399.337,491.731 136.187,754.875 26.344,774.262 45.732,664.419 301.88,408.275 292.536,398.903 
		33.424,658.01 10.025,790.581 142.596,767.183 408.69,501.095 	"/>
	<path fill="#FFFFFF" d="M781.378,90.982l-71.739-71.74c-5.169-5.169-11.942-7.753-18.717-7.753
		c-6.773,0.001-13.548,2.585-18.716,7.752L392.739,298.702l9.372,9.344L681.564,28.599c2.499-2.499,5.824-3.876,9.361-3.876
		c3.534,0,6.856,1.377,9.356,3.876l71.739,71.741c2.5,2.5,3.876,5.823,3.876,9.358c0,3.535-1.377,6.859-3.876,9.358L485.573,405.497
		l9.363,9.353l286.441-286.436C791.714,118.078,791.714,101.318,781.378,90.982z"/>
</g>
<g>
	<polygon fill="#FFFFFF" points="470.871,390.811 684.509,177.176 675.152,167.818 461.509,381.459 	"/>
	<polygon fill="#FFFFFF" points="375.3,467.666 120.09,722.872 129.448,732.229 384.651,477.029 	"/>
</g>
<path fill="#FFFFFF" d="M763.407,668.654c-1.361-6.578-5.646-12.177-11.639-15.211l-33.474-16.941
	c-32.367-16.381-64.139-40.522-89.367-66.745c-3.635,10.359-13.697,24.471-27.759,37.786c-13.578,12.856-27.695,21.95-38.142,25.32
	l-0.913,0.913l0.435,0.404c28.484,26.446,51.957,57.819,69.29,92.609l15.377,30.863c3.066,6.153,8.825,10.525,15.576,11.824
	l123.455,21.959L763.407,668.654z M659.061,751.75l-15.377-30.863c-16.151-32.417-37.204-61.725-62.68-87.285l46.495-46.495
	c25.354,24.665,55.058,46.141,84.819,61.203l33.474,16.941c2.38,1.205,4.065,3.382,4.634,5.984l19.312,103.821l-104.517-18.59
	C662.567,755.933,660.268,754.174,659.061,751.75z"/>
</svg>
