<?xml version="1.0" encoding="utf-8"?>
<!-- Generator: Adobe Illustrator 17.1.0, SVG Export Plug-In . SVG Version: 6.00 Build 0)  -->
<!DOCTYPE svg PUBLIC "-//W3C//DTD SVG 1.1//EN" "http://www.w3.org/Graphics/SVG/1.1/DTD/svg11.dtd">
<svg version="1.1" id="Layer_1" xmlns="http://www.w3.org/2000/svg" xmlns:xlink="http://www.w3.org/1999/xlink" x="0px" y="0px"
	 viewBox="0 0 800 800" enable-background="new 0 0 800 800" xml:space="preserve">
<g>
	<path fill="#FFFFFF" d="M282,192v-44.344c0-6.971,5.678-12.656,12.649-12.656h215.902c6.971,0,13.449,5.685,13.449,12.656V192h10
		v-44.344C534,134.729,523.477,124,510.551,124H294.649C281.722,124,272,134.729,272,147.656V192H282z"/>
	<path fill="#FFFFFF" d="M747,678.557C747,691.504,736.504,702,723.557,702H79.443C66.496,702,56,691.504,56,678.557V210.443
		C56,197.496,66.496,187,79.443,187h644.114C736.504,187,747,197.496,747,210.443V678.557z M736,210.643
		c0-6.983-5.661-12.643-12.643-12.643H78.643C71.661,198,66,203.661,66,210.643v468.713C66,686.339,71.661,692,78.643,692h644.713
		c6.983,0,12.643-5.661,12.643-12.643V210.643z"/>
</g>
<path fill="#FFFFFF" stroke="#FFFFFF" stroke-miterlimit="10" d="M446.5,448.057c0,12.947-10.496,23.443-23.443,23.443h-50.114
	c-12.947,0-23.443-10.496-23.443-23.443v-46.114c0-12.947,10.496-23.443,23.443-23.443h50.114c12.947,0,23.443,10.496,23.443,23.443
	V448.057z M434.5,403.143c0-6.983-5.661-12.643-12.643-12.643h-49.713c-6.983,0-12.643,5.661-12.643,12.643v46.713
	c0,6.983,5.661,12.643,12.643,12.643h49.713c6.983,0,12.643-5.661,12.643-12.643V403.143z"/>
<g>
	<rect x="185" y="421" fill="#FFFFFF" width="169" height="11"/>
	<path fill="#FFFFFF" d="M175.354,561H158.64c-8.681,0-15.64-6.811-15.64-16.628V363.601c0-9.537,6.674-16.601,15.64-16.601h16.714
		c9.34,0,16.646,7.518,16.646,16.601v180.771C192,553.707,184.383,561,175.354,561z M158.64,359c-3.66,0-3.64,2.138-3.64,4.601
		v180.771c0,2.22,0.137,6.628,3.64,6.628h16.714c3.065,0,5.646-3.267,5.646-6.628V363.601c0-3.078-2.307-4.601-5.646-4.601H158.64z"
		/>
</g>
<g>
	<g>
		<rect x="441" y="421" fill="#FFFFFF" width="174" height="11"/>
		<path fill="#FFFFFF" d="M722.941,191H78.659C65.733,191,52,197.726,52,210.653v194.303C52,417.882,65.733,432,78.659,432H147v-11
			H78.659C71.687,421,62,411.927,62,404.956V210.653c0-6.972,9.687-8.653,16.659-8.653h644.282c6.971,0,9.059,1.681,9.059,8.653
			v194.303c0,6.971-2.088,16.044-9.059,16.044H655v11h67.941C735.867,432,742,417.882,742,404.956V210.653
			C742,197.726,735.867,191,722.941,191z"/>
	</g>
	<path fill="#FFFFFF" d="M642.987,561h-16.755c-9.021,0-17.232-7.293-17.232-16.628V363.601c0-9.083,7.901-16.601,17.232-16.601
		h16.755c9.374,0,17.013,7.669,17.013,16.601v180.771C660,553.546,652.043,561,642.987,561z M626.232,359
		c-3.331,0-5.232,1.523-5.232,4.601v180.771c0,3.361,2.174,6.628,5.232,6.628h16.755c3.187,0,6.013-3.327,6.013-6.628V363.601
		c0-3.334-3.03-4.601-6.013-4.601H626.232z"/>
</g>
<path fill="#FFFFFF" d="M257,192v-69.543c0-6.971,5.479-13.457,12.45-13.457h262.7c6.971,0,11.85,6.486,11.85,13.457V192h12v-69.543
	C556,109.531,545.076,99,532.15,99h-262.7C256.524,99,246,109.531,246,122.457V192H257z"/>
</svg>
