<?xml version="1.0" encoding="utf-8"?>
<!-- Generator: Adobe Illustrator 17.1.0, SVG Export Plug-In . SVG Version: 6.00 Build 0)  -->
<!DOCTYPE svg PUBLIC "-//W3C//DTD SVG 1.1//EN" "http://www.w3.org/Graphics/SVG/1.1/DTD/svg11.dtd">
<svg version="1.1" id="Layer_1" xmlns="http://www.w3.org/2000/svg" xmlns:xlink="http://www.w3.org/1999/xlink" x="0px" y="0px"
	 viewBox="0 0 58.764 58.764" enable-background="new 0 0 58.764 58.764" xml:space="preserve">
<g>
	<path d="M29.382,5.467c-13.182,0-23.868,10.638-23.868,23.82c0,13.182,10.686,23.772,23.868,23.772
		c8.222,0,15.473-3.677,19.765-10.677c-0.009,0-0.016,0-0.026,0c-0.737,0-1.272-0.071-1.604-0.593
		c-0.174-0.277-0.297-0.478-0.369-0.985c-0.436,0.57-1.061,1.065-1.877,1.485c-0.816,0.419-1.715,0.629-2.697,0.629
		c-1.18,0-2.144-0.358-2.893-1.074c-0.748-0.716-1.123-1.612-1.123-2.688c0-1.178,0.368-2.093,1.105-2.742
		c0.737-0.649,1.703-1.05,2.899-1.2l3.41-0.429c0.491-0.063,0.82-0.273,0.986-0.621c0.094-0.191,0.142-0.473,0.142-0.832
		c0-0.731-0.259-1.279-0.776-1.61c-0.518-0.33-1.259-0.53-2.223-0.53c-1.115,0-1.906,0.232-2.372,0.837
		c-0.261,0.335-0.431,1.352-0.509,1.352h-1.996c0.039-1,0.557-2.526,1.534-3.142c0.977-0.616,2.12-0.783,3.409-0.783
		c1.496,0,2.728,0.285,3.662,0.855c0.925,0.57,1.425,1.457,1.425,2.661v7.331c0,0.222,0.009,0.49,0.1,0.624s0.246,0.291,0.539,0.291
		c0.095,0,0.202,0.161,0.321,0.161c0.001,0,0.002,0,0.002,0c1.929-4,3.033-7.616,3.033-11.844
		C53.25,16.356,42.564,5.467,29.382,5.467z M24.431,41.728c-0.87,0.824-2.195,1.221-3.976,1.221c-1.917,0-3.274-0.459-4.072-1.318
		c-0.798-0.859-1.225-2.248-1.281-3.248h2.055c0.065,1,0.246,1.318,0.546,1.698c0.55,0.689,1.504,1.092,2.862,1.092
		c0.808,0,1.52-0.172,2.134-0.516c0.614-0.345,0.922-0.877,0.922-1.598c0-0.547-0.246-0.963-0.737-1.248
		c-0.314-0.174-0.934-0.377-1.86-0.606l-1.727-0.428c-1.103-0.27-1.916-0.571-2.439-0.904c-0.934-0.579-1.401-1.38-1.401-2.402
		c0-1.204,0.439-2.181,1.318-2.925c0.879-0.745,2.061-1.123,3.546-1.123c1.942,0,3.343,0.552,4.202,1.677
		c0.538,0.713,0.799,1.283,0.783,2.283h-2.02c-0.041,0-0.215-0.896-0.523-1.29c-0.503-0.559-1.374-0.817-2.615-0.817
		c-0.827,0-1.453,0.154-1.879,0.462c-0.426,0.308-0.638,0.714-0.638,1.219c0,0.553,0.28,0.995,0.839,1.326
		c0.322,0.197,0.799,0.371,1.428,0.521l1.441,0.345c1.565,0.372,2.615,0.733,3.147,1.081c0.832,0.547,1.247,1.399,1.247,2.571
		C25.737,39.933,25.301,40.904,24.431,41.728z M38.255,42.55c0,0.095-0.579,0.155-0.753,0.178c-0.174,0.024-0.404,0.036-0.705,0.036
		c-0.737,0-1.271-0.262-1.604-0.784c-0.174-0.277-0.297-0.669-0.368-1.176c-0.436,0.57-1.062,1.065-1.877,1.485
		c-0.816,0.419-1.715,0.629-2.697,0.629c-1.18,0-2.144-0.358-2.893-1.074c-0.748-0.716-1.123-1.612-1.123-2.688
		c0-1.178,0.368-2.093,1.105-2.742c0.737-0.649,1.703-1.05,2.899-1.2l3.41-0.429c0.491-0.063,0.82-0.273,0.986-0.621
		c0.095-0.191,0.142-0.473,0.142-0.832c0-0.731-0.259-1.279-0.777-1.61c-0.518-0.33-1.259-0.53-2.223-0.53
		c-1.115,0-1.905,0.232-2.372,0.837c-0.261,0.335-0.431,1.352-0.51,1.352h-1.996c0.04-1,0.598-2.526,1.575-3.142
		c0.977-0.616,2.16-0.783,3.45-0.783c1.495,0,2.81,0.285,3.743,0.855c0.926,0.57,1.588,1.457,1.588,2.661v7.331
		c0,0.222-0.154,0.4-0.062,0.534c0.091,0.134,0.084,0.202,0.377,0.202c0.095,0,0.194-0.006,0.313-0.018
		c0.119-0.012,0.373-0.03,0.373-0.053V42.55z"/>
	<path d="M44.827,36.679l-1.29,0.166c-0.775,0.103-1.355,0.265-1.744,0.486c-0.661,0.371-0.986,0.965-0.986,1.778
		c0,0.616,0.239,1.102,0.691,1.458c0.451,0.355,1.013,0.533,1.631,0.533c0.753,0,1.534-0.174,2.239-0.522
		c1.188-0.577,1.888-1.522,1.888-2.835v-1.72c0,0.167-0.702,0.306-1.113,0.418C45.73,36.552,45.222,36.632,44.827,36.679z"/>
	<path d="M29.382,0C13.155,0,0,13.155,0,29.382c0,16.227,13.155,29.382,29.382,29.382c16.227,0,29.382-13.155,29.382-29.382
		C58.764,13.155,45.609,0,29.382,0z M29.382,56.229c-14.804,0-26.847-12.044-26.847-26.847S14.579,2.535,29.382,2.535
		s26.847,12.044,26.847,26.847S44.186,56.229,29.382,56.229z"/>
	<path d="M33.476,36.441c-0.411,0.111-0.585,0.191-0.98,0.238L31.2,36.845c-0.775,0.103-1.364,0.265-1.755,0.486
		c-0.661,0.371-1.007,0.965-1.007,1.778c0,0.616,0.197,1.102,0.648,1.458c0.451,0.355,0.928,0.533,1.546,0.533
		c0.752,0,1.365-0.174,2.07-0.522c1.188-0.577,1.551-1.522,1.551-2.835v-1.72C34.255,36.19,33.887,36.33,33.476,36.441z"/>
</g>
</svg>
