<?xml version="1.0" encoding="utf-8"?>
<!-- Generator: Adobe Illustrator 17.1.0, SVG Export Plug-In . SVG Version: 6.00 Build 0)  -->
<!DOCTYPE svg PUBLIC "-//W3C//DTD SVG 1.1//EN" "http://www.w3.org/Graphics/SVG/1.1/DTD/svg11.dtd">
<svg version="1.1" id="Layer_1" xmlns="http://www.w3.org/2000/svg" xmlns:xlink="http://www.w3.org/1999/xlink" x="0px" y="0px"
	 viewBox="0 0 800 800" enable-background="new 0 0 800 800" xml:space="preserve">
<g>
	<g>
		<path fill="#FFFFFF" d="M522.274,565.5L421.279,133.145L414.4,145.06c-0.85,1.472-1.874,2.74-3.019,3.819l98.024,419.631
			c0.383,1.633,0.174,3.358-0.585,4.858L407.47,773.57c-1.243,2.459-3.631,3.926-6.386,3.926c-2.745,0-5.128-1.461-6.374-3.907
			L292.577,573.184c-0.763-1.497-0.975-3.223-0.596-4.862l96.972-419.311c-1.204-1.106-2.279-2.418-3.164-3.952l-6.775-11.734
			l-99.911,432.019c-1.078,4.662-0.475,9.58,1.697,13.841l102.132,200.405c3.496,6.86,10.451,11.122,18.151,11.122
			c7.724,0,14.69-4.281,18.18-11.174l101.348-200.203C522.776,575.071,523.365,570.155,522.274,565.5z"/>
		<path fill="#FFFFFF" d="M400.094,159.928c-8.36,0-15.848-4.323-20.029-11.564L310.515,27.898c-2.19-3.793-2.19-8.321,0-12.114
			c2.19-3.794,6.112-6.058,10.492-6.058h158.175c4.38,0,8.302,2.264,10.492,6.058c2.19,3.793,2.19,8.321,0,12.114l-69.552,120.466
			C415.944,155.604,408.455,159.928,400.094,159.928z M322.917,22.944l68.595,118.811c1.791,3.102,5,4.956,8.582,4.956
			c3.583,0,6.791-1.852,8.58-4.956l68.599-118.811H322.917z"/>
	</g>
	<g>
		
			<rect x="349" y="252" transform="matrix(0.7071 0.7071 -0.7071 0.7071 302.8733 -214.2009)" fill="#FFFFFF" width="122" height="13"/>
	</g>
	<g>
		
			<rect x="340.025" y="51.39" transform="matrix(0.7071 0.7071 -0.7071 0.7071 157.8597 -265.1107)" fill="#FFFFFF" width="117.843" height="13.217"/>
	</g>
	<g>
		
			<rect x="309.978" y="386.474" transform="matrix(0.7071 0.7071 -0.7071 0.7071 400.4172 -180.5232)" fill="#FFFFFF" width="216.281" height="13.216"/>
	</g>
	<g>
		
			<rect x="278.382" y="525.169" transform="matrix(0.7071 0.7071 -0.7071 0.7071 493.9534 -128.9608)" fill="#FFFFFF" width="248.529" height="13.216"/>
	</g>
	<g>
		
			<rect x="268.07" y="655.863" transform="matrix(0.7071 0.7071 -0.7071 0.7071 575.0204 -63.2722)" fill="#FFFFFF" width="191.631" height="13.216"/>
	</g>
</g>
</svg>
