<?xml version="1.0" encoding="utf-8"?>
<!-- Generator: Adobe Illustrator 17.1.0, SVG Export Plug-In . SVG Version: 6.00 Build 0)  -->
<!DOCTYPE svg PUBLIC "-//W3C//DTD SVG 1.1//EN" "http://www.w3.org/Graphics/SVG/1.1/DTD/svg11.dtd">
<svg version="1.1" id="Layer_1" xmlns="http://www.w3.org/2000/svg" xmlns:xlink="http://www.w3.org/1999/xlink" x="0px" y="0px"
	 viewBox="0 0 800 800" enable-background="new 0 0 800 800" xml:space="preserve">
<g>
	<g>
		<path fill="#FFFFFF" d="M400.693,40.635c96.257,0,186.753,37.485,254.817,105.549C723.574,214.247,761.058,304.743,761.058,401
			S723.574,587.753,655.51,655.817c-68.064,68.064-158.56,105.549-254.817,105.549S213.94,723.881,145.876,655.817
			C77.812,587.753,40.328,497.257,40.328,401s37.485-186.753,105.549-254.817C213.94,78.119,304.436,40.635,400.693,40.635
			 M400.693,27.788C194.574,27.788,27.481,194.881,27.481,401s167.093,373.212,373.212,373.212S773.905,607.119,773.905,401
			S606.812,27.788,400.693,27.788L400.693,27.788z"/>
	</g>
</g>
<g>
	<g>
		<path fill="#FFFFFF" d="M400.693,101.068c80.115,0,155.434,31.198,212.084,87.848c56.65,56.65,87.848,131.969,87.848,212.084
			c0,80.115-31.198,155.434-87.848,212.084c-56.65,56.65-131.969,87.848-212.084,87.848c-80.115,0-155.434-31.198-212.084-87.848
			S100.761,481.115,100.761,401c0-80.115,31.198-155.434,87.848-212.084C245.259,132.266,320.578,101.068,400.693,101.068
			 M400.693,88.221C227.95,88.221,87.914,228.257,87.914,401S227.95,713.779,400.693,713.779S713.472,573.743,713.472,401
			S573.436,88.221,400.693,88.221L400.693,88.221z"/>
	</g>
</g>
<g>
	<path fill="#FFFFFF" d="M408,181.799V97h-13v84.921c2.819-0.107,5.646-0.179,8.491-0.179
		C404.999,181.741,406.5,181.768,408,181.799z"/>
	<path fill="#FFFFFF" d="M395,620.079V705h13v-84.798c-1.5,0.03-3.001,0.057-4.509,0.057
		C400.646,620.259,397.819,620.187,395,620.079z"/>
	<path fill="#FFFFFF" d="M547.808,667.517l11.124-6.423l-41.863-72.509c-3.656,2.218-7.389,4.32-11.18,6.326L547.808,667.517z"/>
	<path fill="#FFFFFF" d="M254.894,134.483l-11.126,6.423l42.996,74.472c3.619-2.28,7.307-4.459,11.064-6.53L254.894,134.483z"/>
	<path fill="#FFFFFF" d="M661.444,558.581l6.423-11.124l-71.842-41.478c-2.057,3.764-4.229,7.456-6.496,11.082L661.444,558.581z"/>
	<path fill="#FFFFFF" d="M141.256,243.418l-6.423,11.126l75.113,43.366c2.02-3.785,4.142-7.506,6.373-11.154L141.256,243.418z"/>
	<path fill="#FFFFFF" d="M622.665,407H705v-12h-82.335c0.054,1.994,0.085,3.993,0.085,6S622.719,405.006,622.665,407z"/>
	<path fill="#FFFFFF" d="M184.317,395H97v12h87.317c-0.054-1.994-0.085-3.993-0.085-6S184.264,396.994,184.317,395z"/>
	<path fill="#FFFFFF" d="M667.867,254.543l-6.423-11.126l-71.915,41.521c2.267,3.627,4.44,7.318,6.497,11.083L667.867,254.543z"/>
	<path fill="#FFFFFF" d="M134.833,547.458l6.423,11.124l75.063-43.337c-2.231-3.648-4.353-7.369-6.373-11.153L134.833,547.458z"/>
	<path fill="#FFFFFF" d="M243.768,661.094l11.126,6.423l42.935-74.366c-3.757-2.07-7.446-4.249-11.064-6.53L243.768,661.094z"/>
	<path fill="#FFFFFF" d="M558.932,140.906l-11.124-6.423l-41.919,72.606c3.792,2.006,7.524,4.108,11.18,6.326L558.932,140.906z"/>
</g>
<g>
	<circle fill="#FFFFFF" cx="403.491" cy="401" r="27.168"/>
</g>
<g>
	<g>
		<path fill="#FFFFFF" d="M403.556,214.723c3.512,0,6.359,2.847,6.359,6.359v175.7c0,3.512-2.847,6.359-6.359,6.359h-0.128
			c-3.512,0-6.359-2.847-6.359-6.359v-175.7c0-3.512,2.847-6.359,6.359-6.359H403.556 M403.556,201.876h-0.128
			c-10.59,0-19.206,8.616-19.206,19.206v175.7c0,10.59,8.616,19.206,19.206,19.206h0.128c10.59,0,19.206-8.616,19.206-19.206v-175.7
			C422.761,210.492,414.146,201.876,403.556,201.876L403.556,201.876z"/>
	</g>
</g>
<g>
	<g>
		<path fill="#FFFFFF" d="M523.458,392.436c3.512,0,6.359,2.847,6.359,6.359v0.128c0,3.512-2.847,6.359-6.359,6.359H409.85
			c-3.512,0-6.359-2.847-6.359-6.359v-0.128c0-3.512,2.847-6.359,6.359-6.359H523.458 M523.458,379.589H409.85
			c-10.59,0-19.206,8.616-19.206,19.206v0.128c0,10.59,8.616,19.206,19.206,19.206h113.608c10.59,0,19.206-8.616,19.206-19.206
			v-0.128C542.664,388.205,534.048,379.589,523.458,379.589L523.458,379.589z"/>
	</g>
</g>
</svg>
